<svg width="85" height="24" viewBox="0 0 85 24" fill="none" xmlns="http://www.w3.org/2000/svg">
<path d="M0 0.000240326H11.7315C15.0067 0.000240326 18.1477 1.26452 20.4636 3.51496C22.7795 5.7654 24.0805 8.81764 24.0805 12.0002C24.0805 15.1828 22.7795 18.2351 20.4636 20.4855C18.1477 22.736 15.0067 24.0002 11.7315 24.0002V17.8481C13.3276 17.8481 14.8583 17.232 15.9869 16.1353C17.1155 15.0386 17.7495 13.5512 17.7495 12.0002C17.7495 10.4493 17.1155 8.96184 15.9869 7.86515C14.8583 6.76846 13.3276 6.15234 11.7315 6.15234V6.15409H5.55705V11.6925H0V0.000240326Z" fill="#212121"/>
<path d="M5.55705 11.6925L11.7315 11.6926V17.8464H5.55705L5.55705 11.6925Z" fill="#212121"/>
<path d="M78.2864 4.08166C79.614 4.08166 80.7581 4.30689 81.7185 4.75736C82.6931 5.20782 83.4346 5.84832 83.9431 6.67886C84.4516 7.49532 84.7058 8.45255 84.7058 9.55055C84.7058 10.6345 84.4516 11.5917 83.9431 12.4222C83.4346 13.2387 82.6931 13.8722 81.7185 14.3226C80.7581 14.7731 79.614 14.9983 78.2864 14.9983H71.4008V11.4932H78.0109C78.7171 11.4932 79.268 11.3242 79.6635 10.9864C80.0589 10.6345 80.2567 10.1559 80.2567 9.55055C80.2567 8.93117 80.0589 8.45255 79.6635 8.1147C79.268 7.76278 78.7171 7.58682 78.0109 7.58682H71.7822L73.7525 5.55974V19.9182H69.3669V4.08166H78.2864Z" fill="#212121"/>
<path d="M57.6542 20.2562C55.7757 20.2562 54.1232 19.9113 52.6966 19.2215C51.2842 18.5318 50.1825 17.5675 49.3916 16.3287C48.6147 15.09 48.2263 13.6471 48.2263 12.0001C48.2263 10.3531 48.6147 8.91019 49.3916 7.67142C50.1825 6.43265 51.2842 5.46838 52.6966 4.77861C54.1232 4.08884 55.7757 3.74395 57.6542 3.74395C59.5468 3.74395 61.1994 4.08884 62.6118 4.77861C64.0242 5.46838 65.1259 6.43265 65.9168 7.67142C66.7078 8.91019 67.1033 10.3531 67.1033 12.0001C67.1033 13.6471 66.7078 15.09 65.9168 16.3287C65.1259 17.5675 64.0242 18.5318 62.6118 19.2215C61.1994 19.9113 59.5468 20.2562 57.6542 20.2562ZM57.6542 16.3498C58.6853 16.3498 59.5751 16.1739 60.3237 15.822C61.0722 15.47 61.6443 14.9703 62.0398 14.3228C62.4494 13.6752 62.6542 12.901 62.6542 12.0001C62.6542 11.0991 62.4494 10.3249 62.0398 9.67738C61.6443 9.02984 61.0722 8.53011 60.3237 8.17818C59.5751 7.82626 58.6853 7.6503 57.6542 7.6503C56.6373 7.6503 55.7545 7.82626 55.0059 8.17818C54.2573 8.53011 53.6782 9.02984 53.2686 9.67738C52.859 10.3249 52.6542 11.0991 52.6542 12.0001C52.6542 12.901 52.859 13.6752 53.2686 14.3228C53.6782 14.9703 54.2573 15.47 55.0059 15.822C55.7545 16.1739 56.6373 16.3498 57.6542 16.3498Z" fill="#212121"/>
<path d="M37.2354 4.08166C39.1139 4.08166 40.7594 4.41247 42.1718 5.07409C43.5984 5.72163 44.7 6.64366 45.4769 7.8402C46.2678 9.02266 46.6633 10.4092 46.6633 11.9999C46.6633 13.5906 46.2678 14.9842 45.4769 16.1808C44.7 17.3632 43.5984 18.2853 42.1718 18.9469C40.7594 19.5944 39.1139 19.9182 37.2354 19.9182H29.3118V4.08166H37.2354ZM33.6761 18.0812L31.5787 16.033H37.5744C38.5207 16.033 39.3399 15.8711 40.032 15.5473C40.7382 15.2095 41.282 14.7379 41.6634 14.1326C42.0447 13.5273 42.2354 12.8164 42.2354 11.9999C42.2354 11.1694 42.0447 10.4585 41.6634 9.86728C41.282 9.26197 40.7382 8.79743 40.032 8.47366C39.3399 8.13582 38.5207 7.9669 37.5744 7.9669H31.5787L33.6761 5.9187V18.0812Z" fill="#212121"/>
</svg>
