<svg width="87" height="26" viewBox="0 0 87 26" fill="none" xmlns="http://www.w3.org/2000/svg">
<path d="M6.52616 0L0 7.05812V11.636L14.3809 26L28.7554 11.6437V9.79509H11.1969L12.4137 13.6117H20.5833L14.3796 19.811L4.52552 9.96455L9.52904 4.55992H19.2303L21.3684 6.87197H27.9485V6.18644L22.228 0H6.52616Z" fill="#01141A"/>
<path d="M41.3103 13.5536V11.5972H47.018V18.4895H45.2591L44.918 16.8023C43.9847 18.1305 42.6026 18.7767 40.7539 18.7767C38.9052 18.7767 37.4334 18.1664 36.3206 16.9459C35.2078 15.7254 34.6514 14.11 34.6514 12.0998C34.6514 10.0895 35.2078 8.47413 36.3565 7.23567C37.4873 6.03311 39.0309 5.42285 40.9693 5.42285C42.5667 5.42285 43.895 5.83567 44.9719 6.64336C46.0129 7.469 46.6591 8.56388 46.8744 9.96387H44.3796C44.2001 9.21003 43.8052 8.61772 43.195 8.18695C42.5847 7.75618 41.8488 7.5408 40.9873 7.5408C39.8026 7.5408 38.8873 7.95362 38.2052 8.76131C37.5232 9.58695 37.1821 10.6998 37.1821 12.0998C37.1821 13.5177 37.5232 14.6305 38.2232 15.4382C38.9052 16.2639 39.8565 16.6587 41.077 16.6587C42.0283 16.6587 42.8539 16.3716 43.536 15.7972C44.218 15.2228 44.577 14.4869 44.6488 13.5536H41.3103Z" fill="#01141A"/>
<path d="M58.6963 5.71003V7.88182H51.6963V10.8972H58.0322V12.9793H51.6963V16.3177H58.6604V18.4895H49.2733V5.71003H58.6963Z" fill="#01141A"/>
<path d="M68.5035 11.7946L70.6394 5.71003H74.1573V18.4895H71.8419V14.5946C71.8419 12.2075 71.8599 10.0895 71.9137 8.25875C71.6445 9.15618 71.3214 10.1434 70.9445 11.2023L68.3599 18.4895H66.3676L63.765 11.2023C63.2983 9.87413 62.9932 8.9049 62.8137 8.29465C62.8496 10.1254 62.8855 12.2254 62.8855 14.5946V18.4895H60.5522V5.71003H64.0701L66.2778 11.9203C66.4214 12.3511 66.7804 13.4998 67.3727 15.3844C67.7496 14.0562 68.1265 12.8716 68.5035 11.7946Z" fill="#01141A"/>
<path d="M81.4804 18.7767C79.7394 18.7767 78.3932 18.3998 77.4419 17.61C76.4906 16.8382 76.006 15.7254 76.006 14.2716H78.3932C78.3932 15.1869 78.6624 15.8331 79.2009 16.228C79.7394 16.6228 80.5112 16.8203 81.5522 16.8203C82.3778 16.8203 83.024 16.6767 83.4727 16.3536C83.9035 16.0305 84.1368 15.5818 84.1368 14.9716C84.1368 14.469 83.9394 14.0921 83.5624 13.8228C83.1855 13.5716 82.5035 13.3382 81.5163 13.1228L80.4394 12.9075C77.6932 12.4049 76.3291 11.1126 76.3291 9.03054C76.3291 7.93567 76.7419 7.05618 77.5855 6.41003C78.4112 5.76388 79.5778 5.42285 81.0676 5.42285C82.7547 5.42285 84.0291 5.78183 84.8906 6.49977C85.7522 7.21772 86.2188 8.22285 86.2727 9.51516H83.9214C83.8676 8.79721 83.6163 8.25875 83.1855 7.89977C82.7547 7.55875 82.0547 7.37926 81.1035 7.37926C80.3496 7.37926 79.7932 7.52285 79.3983 7.79208C79.0035 8.07926 78.806 8.45618 78.806 8.95875C78.806 9.47926 78.9855 9.87413 79.3445 10.1434C79.7035 10.4305 80.3676 10.6639 81.3009 10.8434L82.4137 11.0587C83.9035 11.3639 84.9804 11.8126 85.6445 12.4049C86.3086 12.9972 86.6496 13.8049 86.6496 14.8459C86.6496 16.1023 86.1829 17.0716 85.2855 17.7536C84.3701 18.4357 83.0958 18.7767 81.4804 18.7767Z" fill="#01141A"/>
</svg>
